<?xml version="1.0" encoding="UTF-8" standalone="no"?><!-- Generator: Gravit.io --><svg xmlns="http://www.w3.org/2000/svg" xmlns:xlink="http://www.w3.org/1999/xlink" style="isolation:isolate" viewBox="0 0 250 250" width="250pt" height="250pt"><defs><clipPath id="_clipPath_xD5KqEeXiIEn9jOKfXXmq0OnK0LDTIDu"><rect width="250" height="250"/></clipPath></defs><g clip-path="url(#_clipPath_xD5KqEeXiIEn9jOKfXXmq0OnK0LDTIDu)"><g style="isolation:isolate"/><g style="isolation:isolate"><g><g/><g><path d=" M 195 37.438 L 170.684 59.117 L 170.684 59.117 Q 163.652 50.621 154.57 46.813 L 154.57 46.813 L 154.57 46.813 Q 145.488 43.004 135.82 43.004 L 135.82 43.004 L 134.648 43.004 L 134.648 14 L 134.941 14 L 134.941 14 Q 152.52 14 167.754 19.859 L 167.754 19.859 L 167.754 19.859 Q 182.988 25.719 195 37.438 L 195 37.438 Z  M 45 124.449 L 45 124.449 L 45 124.449 Q 45 99.254 50.859 79.771 L 50.859 79.771 L 50.859 79.771 Q 56.719 60.289 66.973 46.666 L 66.973 46.666 L 66.973 46.666 Q 77.227 33.043 91.582 25.133 L 91.582 25.133 L 91.582 25.133 Q 105.938 17.223 122.637 15.172 L 122.637 15.172 L 122.637 44.469 L 122.637 44.469 Q 113.848 46.813 106.377 52.379 L 106.377 52.379 L 106.377 52.379 Q 98.906 57.945 93.193 67.76 L 93.193 67.76 L 93.193 67.76 Q 87.48 77.574 84.258 91.49 L 84.258 91.49 L 84.258 91.49 Q 81.035 105.406 80.742 124.449 L 80.742 124.449 L 80.742 124.449 Q 81.035 143.492 84.258 157.848 L 84.258 157.848 L 84.258 157.848 Q 87.48 172.203 93.193 182.604 L 93.193 182.604 L 93.193 182.604 Q 98.906 193.004 106.377 199.156 L 106.377 199.156 L 106.377 199.156 Q 113.848 205.309 122.637 207.652 L 122.637 207.652 L 122.637 234.313 L 122.637 234.313 Q 105.938 232.262 91.582 224.205 L 91.582 224.205 L 91.582 224.205 Q 77.227 216.148 66.973 202.379 L 66.973 202.379 L 66.973 202.379 Q 56.719 188.609 50.859 169.127 L 50.859 169.127 L 50.859 169.127 Q 45 149.645 45 124.449 Z  M 134.648 122.105 L 206.133 122.105 L 206.133 205.602 L 206.133 205.602 Q 199.395 214.098 191.045 219.518 L 191.045 219.518 L 191.045 219.518 Q 182.695 224.938 173.467 228.453 L 173.467 228.453 L 173.467 228.453 Q 164.238 231.969 154.424 233.434 L 154.424 233.434 L 154.424 233.434 Q 144.609 234.898 134.941 234.898 L 134.941 234.898 L 134.648 234.898 L 134.648 209.117 L 134.648 209.117 Q 138.164 209.117 143.291 208.678 L 143.291 208.678 L 143.291 208.678 Q 148.418 208.238 153.838 207.213 L 153.838 207.213 L 153.838 207.213 Q 159.258 206.188 164.092 204.43 L 164.092 204.43 L 164.092 204.43 Q 168.926 202.672 171.27 199.449 L 171.27 199.449 L 171.27 146.129 L 134.648 146.129 L 134.648 122.105 Z " fill="rgb(0,0,0)"/></g></g><path d=" M 77.415 103.19 Q 80.596 102.621 81.702 103.758 Q 85.574 111.494 91.66 117.409 Q 97.801 124.53 99.543 135.269 Q 100.626 139.156 100.787 143.801 Q 100.005 149.905 103.691 152.333 Q 109.439 153.976 118.628 152.788 L 158.457 152.788 C 162.657 150.692 161.453 146.435 161.731 143.081 C 162.059 139.132 162.661 135.214 163.989 131.402 L 163.989 131.402 L 168 131.515 Q 166.066 137.887 165.511 145.394 Q 166.356 152.687 161.5 155.291 Q 160.029 156.697 156.245 156.201 L 145.734 156.201 L 103.415 156.201 Q 100.56 155.25 98.851 153.357 Q 96.051 150.313 96.085 144.939 Q 96.401 140.47 95.255 137.203 Q 93.917 125.336 86.819 118.206 Q 80.612 111.935 77 103.531 L 77.415 103.19 L 77.415 103.19 Z  M 102.032 157.111 C 102.998 156.997 104.226 157.048 104.66 157.907 L 104.66 157.907 L 104.936 159.045 C 104.016 159.586 104.399 160.818 104.66 161.548 L 104.66 161.548 L 106.181 163.254 C 109.499 164.275 113.252 164.125 116.691 163.709 L 116.691 163.709 L 142.691 163.709 L 152.372 163.709 Q 155.922 163.178 157.213 164.505 Q 159.097 166.482 158.872 170.193 Q 159.286 173.718 157.074 175.085 Q 155.277 176.109 151.819 175.767 L 141.862 175.767 L 115.862 175.767 L 109.223 175.767 C 108.18 175.602 106.727 175.509 106.043 176.336 L 106.043 176.336 L 105.766 177.474 C 106.24 178.547 107.839 178.462 108.947 178.27 L 108.947 178.27 L 115.585 178.27 L 142.138 178.27 L 152.096 178.27 C 154.356 177.994 156.941 178.038 158.399 179.698 C 159.716 181.197 159.707 183.235 159.426 184.982 L 159.426 184.982 L 158.181 186.688 C 156.713 187.777 154.49 187.785 152.649 187.598 L 152.649 187.598 L 143.245 187.598 L 116.691 187.598 L 110.053 187.598 Q 107.771 187.086 107.149 187.939 Q 106.803 189.134 107.564 189.418 Q 110.376 190.745 116.138 189.646 L 140.202 189.646 L 148.777 189.646 Q 152.338 189.219 153.617 190.67 Q 154.309 191.466 153.894 193.172 Q 151.849 196.837 147.947 198.974 Q 145.239 202.549 137.713 202.159 L 128.862 202.159 C 127.844 201.923 126.118 201.593 125.404 202.5 L 125.404 202.5 L 125.819 203.297 L 129.691 204.889 C 130.495 204.88 131.359 205.06 131.766 205.686 L 131.766 205.686 L 132.043 207.278 L 131.351 208.075 L 128.585 208.302 Q 122.226 206.48 118.489 202.5 Q 117.66 201.818 117.936 200.225 L 118.628 199.202 C 119.923 198.369 121.821 198.516 123.33 198.746 L 123.33 198.746 L 134.67 198.746 C 137.31 199.175 140.807 199.486 142.968 197.836 L 142.968 197.836 L 148.085 193.855 L 147.67 193.059 L 117.798 193.059 Q 108.079 194.455 103.83 191.352 Q 102.502 189.942 103 187.029 L 104.245 185.095 C 105.575 183.969 107.754 183.988 109.5 184.185 L 109.5 184.185 L 119.457 184.185 L 146.011 184.185 L 152.649 184.185 C 153.604 184.37 154.855 184.502 155.477 183.739 C 155.968 183.136 155.27 181.988 154.585 181.683 L 154.585 181.683 L 118.351 181.683 L 109.223 181.683 C 106.831 181.895 104.235 181.712 102.668 180.036 C 101.53 178.82 101.621 177.083 101.894 175.654 L 101.894 175.654 L 103.415 173.492 C 104.745 172.366 106.925 172.385 108.67 172.582 L 108.67 172.582 L 114.202 172.582 L 118.628 172.582 L 144.628 172.582 L 150.989 172.582 C 152.128 172.732 153.595 172.784 154.447 172.013 L 154.447 172.013 L 154.723 168.373 C 154.686 167.781 154.421 167.189 153.755 166.894 L 153.755 166.894 L 118.074 166.894 L 113.096 166.894 L 109.223 166.894 C 107.878 166.969 106.498 166.932 105.193 166.626 C 101.098 165.665 100.226 162.124 100.511 159.045 L 100.511 159.045 L 101.479 157.338 L 102.032 157.111 L 102.032 157.111 Z  M 113.096 166.894 L 138.681 167.008 L 113.096 167.122 L 113.096 166.894 L 113.096 166.894 Z  M 114.202 172.355 L 151.128 172.468 L 114.202 172.582 L 114.202 172.355 L 114.202 172.355 Z " fill-rule="evenodd" fill="rgb(0,0,0)"/></g></g></svg>