<?xml version="1.0" encoding="UTF-8" standalone="no"?><!-- Generator: Gravit.io --><svg xmlns="http://www.w3.org/2000/svg" xmlns:xlink="http://www.w3.org/1999/xlink" style="isolation:isolate" viewBox="0 0 126.9 149" width="126.9pt" height="149pt"><defs><clipPath id="_clipPath_FODvxfQuv0BWYJ8reCSCnYXiFGDvsp3B"><rect width="126.9" height="149"/></clipPath></defs><g clip-path="url(#_clipPath_FODvxfQuv0BWYJ8reCSCnYXiFGDvsp3B)"><g><line x1="5.44" y1="4" x2="53.19" y2="4" vector-effect="non-scaling-stroke" stroke-width="8" stroke="rgb(0,0,0)" stroke-linejoin="miter" stroke-linecap="square" stroke-miterlimit="3"/><line x1="4.315" y1="27" x2="54.065" y2="27" vector-effect="non-scaling-stroke" stroke-width="5" stroke="rgb(0,0,0)" stroke-linejoin="miter" stroke-linecap="square" stroke-miterlimit="3"/><line x1="3.19" y1="50" x2="52.94" y2="50" vector-effect="non-scaling-stroke" stroke-width="3" stroke="rgb(0,0,0)" stroke-linejoin="miter" stroke-linecap="square" stroke-miterlimit="3"/><line x1="2.19" y1="69" x2="51.94" y2="69" vector-effect="non-scaling-stroke" stroke-width="2" stroke="rgb(0,0,0)" stroke-linejoin="miter" stroke-linecap="square" stroke-miterlimit="3"/><line x1="2.19" y1="84" x2="51.94" y2="84" vector-effect="non-scaling-stroke" stroke-width="1" stroke="rgb(0,0,0)" stroke-linejoin="miter" stroke-linecap="square" stroke-miterlimit="3"/><line x1="2.19" y1="99.951" x2="51.94" y2="99.951" vector-effect="non-scaling-stroke" stroke-width="1" stroke="rgb(0,0,0)" stroke-linejoin="miter" stroke-linecap="square" stroke-miterlimit="3"/></g><g><path d="M 113.565 6.07 L 111.203 14.88 L 99.74 11.81 L 102.057 3.166 C 102.187 2.68 102.688 2.391 103.175 2.521 L 113.041 5.164 C 113.436 5.269 113.67 5.675 113.565 6.07 Z" style="stroke:none;fill:#000000;stroke-miterlimit:10;"/><rect x="67.434" y="40.965" width="57.543" height="11.62" transform="matrix(-0.259,0.966,-0.966,-0.259,166.286,-34.046)" fill="rgb(0,0,0)"/><polygon points="81.94,79.012,93.209,82.032,84.959,90.281" fill="rgb(0,0,0)"/></g><g clip-path="url(#_clipPath_YMSDitK1wjGWfW58bv7R87avPNGuQOB3)"><text transform="matrix(1,0,0,1,0.44,147.494)" style="font-family:'Tempo Heavy Condensed';font-weight:400;font-size:46px;font-style:italic;fill:#000000;stroke:none;">GENIUS</text></g><defs><clipPath id="_clipPath_YMSDitK1wjGWfW58bv7R87avPNGuQOB3"><rect x="0" y="0" width="157" height="60" transform="matrix(1,0,0,1,0.44,102)"/></clipPath></defs><circle vector-effect="non-scaling-stroke" cx="81.9399999999999" cy="102" r="5.5" fill="rgb(0,0,0)"/></g></svg>