<?xml version="1.0" encoding="UTF-8" standalone="no"?><!-- Generator: Gravit.io --><svg xmlns="http://www.w3.org/2000/svg" xmlns:xlink="http://www.w3.org/1999/xlink" style="isolation:isolate" viewBox="0 0 422.563 220.898" width="422.563pt" height="220.898pt"><defs><clipPath id="_clipPath_aI8B4SYpqxjOQ2u8dN3d9XALIR6IklRF"><rect width="422.563" height="220.898"/></clipPath></defs><g clip-path="url(#_clipPath_aI8B4SYpqxjOQ2u8dN3d9XALIR6IklRF)"><g style="isolation:isolate"/><g style="isolation:isolate"><g><g/><g><path d=" M 150 23.438 L 125.684 45.117 L 125.684 45.117 Q 118.652 36.621 109.57 32.813 L 109.57 32.813 L 109.57 32.813 Q 100.488 29.004 90.82 29.004 L 90.82 29.004 L 89.648 29.004 L 89.648 0 L 89.941 0 L 89.941 0 Q 107.52 0 122.754 5.859 L 122.754 5.859 L 122.754 5.859 Q 137.988 11.719 150 23.438 L 150 23.438 Z  M 0 110.449 L 0 110.449 L 0 110.449 Q 0 85.254 5.859 65.771 L 5.859 65.771 L 5.859 65.771 Q 11.719 46.289 21.973 32.666 L 21.973 32.666 L 21.973 32.666 Q 32.227 19.043 46.582 11.133 L 46.582 11.133 L 46.582 11.133 Q 60.938 3.223 77.637 1.172 L 77.637 1.172 L 77.637 30.469 L 77.637 30.469 Q 68.848 32.813 61.377 38.379 L 61.377 38.379 L 61.377 38.379 Q 53.906 43.945 48.193 53.76 L 48.193 53.76 L 48.193 53.76 Q 42.48 63.574 39.258 77.49 L 39.258 77.49 L 39.258 77.49 Q 36.035 91.406 35.742 110.449 L 35.742 110.449 L 35.742 110.449 Q 36.035 129.492 39.258 143.848 L 39.258 143.848 L 39.258 143.848 Q 42.48 158.203 48.193 168.604 L 48.193 168.604 L 48.193 168.604 Q 53.906 179.004 61.377 185.156 L 61.377 185.156 L 61.377 185.156 Q 68.848 191.309 77.637 193.652 L 77.637 193.652 L 77.637 220.313 L 77.637 220.313 Q 60.938 218.262 46.582 210.205 L 46.582 210.205 L 46.582 210.205 Q 32.227 202.148 21.973 188.379 L 21.973 188.379 L 21.973 188.379 Q 11.719 174.609 5.859 155.127 L 5.859 155.127 L 5.859 155.127 Q 0 135.645 0 110.449 Z  M 89.648 108.105 L 161.133 108.105 L 161.133 191.602 L 161.133 191.602 Q 154.395 200.098 146.045 205.518 L 146.045 205.518 L 146.045 205.518 Q 137.695 210.938 128.467 214.453 L 128.467 214.453 L 128.467 214.453 Q 119.238 217.969 109.424 219.434 L 109.424 219.434 L 109.424 219.434 Q 99.609 220.898 89.941 220.898 L 89.941 220.898 L 89.648 220.898 L 89.648 195.117 L 89.648 195.117 Q 93.164 195.117 98.291 194.678 L 98.291 194.678 L 98.291 194.678 Q 103.418 194.238 108.838 193.213 L 108.838 193.213 L 108.838 193.213 Q 114.258 192.188 119.092 190.43 L 119.092 190.43 L 119.092 190.43 Q 123.926 188.672 126.27 185.449 L 126.27 185.449 L 126.27 132.129 L 89.648 132.129 L 89.648 108.105 Z " fill="rgb(0,0,0)"/><path d=" M 176.205 182.666 L 176.205 117.891 L 186.928 117.891 L 186.928 182.666 L 176.205 182.666 Z  M 213.998 146.279 L 213.998 153.486 L 190.531 153.486 L 190.531 146.279 L 213.998 146.279 Z  M 190.531 182.666 L 190.531 174.668 L 216.723 174.668 L 216.723 182.666 L 190.531 182.666 Z  M 190.531 117.891 L 216.723 117.891 L 216.723 125.889 L 190.531 125.889 L 190.531 117.891 Z  M 267.26 162.539 L 267.26 117.891 L 277.982 117.891 L 277.982 182.666 L 267.26 182.666 L 245.463 144.346 L 245.463 124.131 L 267.26 162.539 Z  M 241.859 182.666 L 231.137 182.666 L 231.137 117.891 L 241.859 117.891 L 241.859 182.666 Z  M 304.965 117.891 L 304.965 182.666 L 294.242 182.666 L 294.242 117.891 L 304.965 117.891 Z  M 330.98 117.891 L 330.98 148.916 L 330.98 148.916 Q 330.98 155.684 331.859 160.386 L 331.859 160.386 L 331.859 160.386 Q 332.738 165.088 334.408 168.12 L 334.408 168.12 L 334.408 168.12 Q 336.078 171.152 338.407 172.646 L 338.407 172.646 L 338.407 172.646 Q 340.736 174.141 343.637 174.404 L 343.637 174.404 L 343.637 183.105 L 343.637 183.105 Q 338.275 182.754 333.925 180.513 L 333.925 180.513 L 333.925 180.513 Q 329.574 178.271 326.586 174.097 L 326.586 174.097 L 326.586 174.097 Q 323.598 169.922 321.928 163.857 L 321.928 163.857 L 321.928 163.857 Q 320.258 157.793 320.258 149.971 L 320.258 149.971 L 320.258 117.891 L 330.98 117.891 Z  M 359.984 117.891 L 370.619 117.891 L 370.619 149.971 L 370.619 149.971 Q 370.619 157.793 368.949 163.857 L 368.949 163.857 L 368.949 163.857 Q 367.279 169.922 364.247 174.097 L 364.247 174.097 L 364.247 174.097 Q 361.215 178.271 356.908 180.513 L 356.908 180.513 L 356.908 180.513 Q 352.602 182.754 347.24 183.105 L 347.24 183.105 L 347.24 174.404 L 347.24 174.404 Q 350.141 174.053 352.47 172.603 L 352.47 172.603 L 352.47 172.603 Q 354.799 171.152 356.469 168.164 L 356.469 168.164 L 356.469 168.164 Q 358.139 165.176 359.062 160.474 L 359.062 160.474 L 359.062 160.474 Q 359.984 155.771 359.984 148.916 L 359.984 148.916 L 359.984 117.891 Z  M 415.707 127.91 L 415.707 127.91 L 415.707 127.91 Q 415.268 127.734 414.652 127.295 L 414.652 127.295 L 414.652 127.295 Q 414.037 126.855 412.895 126.46 L 412.895 126.46 L 412.895 126.46 Q 411.752 126.064 409.994 125.801 L 409.994 125.801 L 409.994 125.801 Q 408.236 125.537 405.512 125.713 L 405.512 125.713 L 405.512 116.836 L 405.512 116.836 Q 409.379 116.924 413.378 117.671 L 413.378 117.671 L 413.378 117.671 Q 417.377 118.418 419.838 120 L 419.838 120 L 419.838 120 Q 419.311 121.143 418.607 122.505 L 418.607 122.505 L 418.607 122.505 Q 417.904 123.867 417.289 125.054 L 417.289 125.054 L 417.289 125.054 Q 416.674 126.24 416.234 127.031 L 416.234 127.031 L 416.234 127.031 Q 415.795 127.822 415.707 127.91 Z  M 385.385 134.941 L 385.385 134.941 L 385.385 134.941 Q 385.385 131.074 386.703 127.998 L 386.703 127.998 L 386.703 127.998 Q 388.021 124.922 390.263 122.593 L 390.263 122.593 L 390.263 122.593 Q 392.504 120.264 395.536 118.901 L 395.536 118.901 L 395.536 118.901 Q 398.568 117.539 401.908 117.1 L 401.908 117.1 L 401.908 126.328 L 401.908 126.328 Q 399.096 127.295 397.25 129.712 L 397.25 129.712 L 397.25 129.712 Q 395.404 132.129 395.404 134.59 L 395.404 134.59 L 395.404 134.59 Q 395.404 138.018 397.25 140.127 L 397.25 140.127 L 397.25 140.127 Q 399.096 142.236 401.908 143.818 L 401.908 143.818 L 401.908 153.838 L 401.908 153.838 Q 399.008 152.432 396.107 150.806 L 396.107 150.806 L 396.107 150.806 Q 393.207 149.18 390.834 146.982 L 390.834 146.982 L 390.834 146.982 Q 388.461 144.785 386.923 141.885 L 386.923 141.885 L 386.923 141.885 Q 385.385 138.984 385.385 134.941 Z  M 384.945 178.359 L 386.791 170.801 L 386.791 170.801 Q 388.021 171.504 389.911 172.163 L 389.911 172.163 L 389.911 172.163 Q 391.801 172.822 393.822 173.394 L 393.822 173.394 L 393.822 173.394 Q 395.844 173.965 397.865 174.316 L 397.865 174.316 L 397.865 174.316 Q 399.887 174.668 401.645 174.668 L 401.645 174.668 L 401.908 174.668 L 401.908 183.018 L 401.732 183.018 L 401.732 183.018 Q 399.623 183.018 397.382 182.798 L 397.382 182.798 L 397.382 182.798 Q 395.141 182.578 392.855 182.051 L 392.855 182.051 L 392.855 182.051 Q 390.57 181.523 388.505 180.601 L 388.505 180.601 L 388.505 180.601 Q 386.439 179.678 384.945 178.359 L 384.945 178.359 Z  M 405.512 155.859 L 405.512 145.576 L 405.512 145.576 Q 408.412 146.895 411.444 148.389 L 411.444 148.389 L 411.444 148.389 Q 414.477 149.883 416.938 152.036 L 416.938 152.036 L 416.938 152.036 Q 419.398 154.189 420.98 157.266 L 420.98 157.266 L 420.98 157.266 Q 422.563 160.342 422.563 164.912 L 422.563 164.912 L 422.563 164.912 Q 422.563 168.076 421.376 171.064 L 421.376 171.064 L 421.376 171.064 Q 420.189 174.053 418.036 176.47 L 418.036 176.47 L 418.036 176.47 Q 415.883 178.887 412.719 180.557 L 412.719 180.557 L 412.719 180.557 Q 409.555 182.227 405.512 182.754 L 405.512 182.754 L 405.512 174.316 L 405.512 174.316 Q 412.719 172.559 412.719 164.736 L 412.719 164.736 L 412.719 164.736 Q 412.719 161.66 410.697 159.639 L 410.697 159.639 L 410.697 159.639 Q 408.676 157.617 405.512 155.859 L 405.512 155.859 Z " fill="rgb(0,0,0)"/><path d=" M 173.223 53.678 L 161.21 77.45 L 158.265 74.402 L 167.298 56.597 L 149.146 64.962 L 146.177 61.889 L 170.396 50.753 L 173.223 53.678 Z  M 157.866 62.478 L 161.049 65.772 L 159.746 68.408 L 155.21 63.713 L 157.866 62.478 Z  M 164.891 81.26 L 173.058 73.37 L 183.008 63.757 L 185.905 66.756 L 179.423 82.429 L 174.875 86.822 L 174.115 86.036 L 180.251 72.218 L 167.788 84.259 L 164.891 81.26 Z  M 180.347 83.484 L 196.283 77.498 L 199.18 80.497 L 181.064 98 L 178.166 95.001 L 190.629 82.961 L 176.632 88.641 L 175.849 87.83 L 180.347 83.484 Z  M 154.106 33.841 L 135.989 51.344 L 133.092 48.345 L 151.209 30.842 L 154.106 33.841 Z " fill="rgb(0,0,0)"/></g></g><path d=" M 32.415 89.19 Q 35.596 88.621 36.702 89.758 Q 40.574 97.494 46.66 103.409 Q 52.801 110.53 54.543 121.269 Q 55.626 125.156 55.787 129.801 Q 55.005 135.905 58.691 138.333 Q 64.439 139.976 73.628 138.788 L 113.457 138.788 C 117.657 136.692 116.453 132.435 116.731 129.081 C 117.059 125.132 117.661 121.214 118.989 117.402 L 118.989 117.402 L 123 117.515 Q 121.066 123.887 120.511 131.394 Q 121.356 138.687 116.5 141.291 Q 115.029 142.697 111.245 142.201 L 100.734 142.201 L 58.415 142.201 Q 55.56 141.25 53.851 139.357 Q 51.051 136.313 51.085 130.939 Q 51.401 126.47 50.255 123.203 Q 48.917 111.336 41.819 104.206 Q 35.612 97.935 32 89.531 L 32.415 89.19 L 32.415 89.19 Z  M 57.032 143.111 C 57.998 142.997 59.226 143.048 59.66 143.907 L 59.66 143.907 L 59.936 145.045 C 59.016 145.586 59.399 146.818 59.66 147.548 L 59.66 147.548 L 61.181 149.254 C 64.499 150.275 68.252 150.125 71.691 149.709 L 71.691 149.709 L 97.691 149.709 L 107.372 149.709 Q 110.922 149.178 112.213 150.505 Q 114.096 152.482 113.872 156.193 Q 114.286 159.718 112.074 161.085 Q 110.277 162.109 106.819 161.767 L 96.862 161.767 L 70.862 161.767 L 64.223 161.767 C 63.18 161.602 61.727 161.509 61.043 162.336 L 61.043 162.336 L 60.766 163.474 C 61.24 164.547 62.839 164.462 63.947 164.27 L 63.947 164.27 L 70.585 164.27 L 97.138 164.27 L 107.096 164.27 C 109.356 163.994 111.941 164.038 113.399 165.698 C 114.716 167.197 114.707 169.235 114.426 170.982 L 114.426 170.982 L 113.181 172.688 C 111.713 173.777 109.49 173.785 107.649 173.598 L 107.649 173.598 L 98.245 173.598 L 71.691 173.598 L 65.053 173.598 Q 62.771 173.086 62.149 173.939 Q 61.803 175.134 62.564 175.418 Q 65.376 176.745 71.138 175.646 L 95.202 175.646 L 103.777 175.646 Q 107.338 175.219 108.617 176.67 Q 109.309 177.466 108.894 179.172 Q 106.849 182.837 102.947 184.974 Q 100.239 188.549 92.713 188.159 L 83.862 188.159 C 82.844 187.923 81.118 187.593 80.404 188.5 L 80.404 188.5 L 80.819 189.297 L 84.691 190.889 C 85.495 190.88 86.359 191.06 86.766 191.686 L 86.766 191.686 L 87.043 193.278 L 86.351 194.075 L 83.585 194.302 Q 77.226 192.48 73.489 188.5 Q 72.66 187.818 72.936 186.225 L 73.628 185.202 C 74.923 184.369 76.821 184.516 78.33 184.746 L 78.33 184.746 L 89.67 184.746 C 92.31 185.175 95.807 185.486 97.968 183.836 L 97.968 183.836 L 103.085 179.855 L 102.67 179.059 L 72.798 179.059 Q 63.079 180.455 58.83 177.352 Q 57.502 175.942 58 173.029 L 59.245 171.095 C 60.575 169.969 62.754 169.988 64.5 170.185 L 64.5 170.185 L 74.457 170.185 L 101.011 170.185 L 107.649 170.185 C 108.604 170.37 109.855 170.502 110.477 169.739 C 110.968 169.136 110.27 167.988 109.585 167.683 L 109.585 167.683 L 73.351 167.683 L 64.223 167.683 C 61.831 167.895 59.235 167.712 57.668 166.036 C 56.53 164.82 56.621 163.083 56.894 161.654 L 56.894 161.654 L 58.415 159.492 C 59.745 158.366 61.925 158.385 63.67 158.582 L 63.67 158.582 L 69.202 158.582 L 73.628 158.582 L 99.628 158.582 L 105.989 158.582 C 107.128 158.732 108.595 158.784 109.447 158.013 L 109.447 158.013 L 109.723 154.373 C 109.686 153.781 109.421 153.189 108.755 152.894 L 108.755 152.894 L 73.074 152.894 L 68.096 152.894 L 64.223 152.894 C 62.878 152.969 61.498 152.932 60.193 152.626 C 56.098 151.665 55.226 148.124 55.511 145.045 L 55.511 145.045 L 56.479 143.338 L 57.032 143.111 L 57.032 143.111 Z  M 68.096 152.894 L 93.681 153.008 L 68.096 153.122 L 68.096 152.894 L 68.096 152.894 Z  M 69.202 158.355 L 106.128 158.468 L 69.202 158.582 L 69.202 158.355 L 69.202 158.355 Z " fill-rule="evenodd" fill="rgb(0,0,0)"/></g></g></svg>